# xmcd
#
# Track frame offsets: 
#        150
#        17194
#        35243
#        52087
#        70119
#        84354
#        100998
#        117967
#        142375
#        160690
#        175483
#        194678
#        214319
#        231324
#        251174
#        266840
#
# Disc length: 3759 seconds
#
# Revision: 0
# Processed by: cddbd v1.5PL3 Copyright (c) Steve Scherf et al.
# Submitted via: ExactAudioCopy v0.95a4
#
DISCID=fe0ead10
DTITLE=Various Artist - Misty Blue - Soul of the sax
DYEAR=1900
DGENRE=Soul
TTITLE0=Misty Blue
TTITLE1=Just the Way You Are
TTITLE2=Unforgettable
TTITLE3=The Air That I Breathe
TTITLE4=How Deep Is Your Love
TTITLE5=Every Time You Go Away
TTITLE6=Wonderful Tomight
TTITLE7=True
TTITLE8=Killing Me Softly
TTITLE9=The Shadow Of Your Smile
TTITLE10=Think Twice
TTITLE11=Careless Whisper
TTITLE12=Crazy
TTITLE13=Ev'ry Time We Say Goodbye
TTITLE14=Holding Back The Years
TTITLE15=Songbird
EXTD=
EXTT0=
EXTT1=
EXTT2=
EXTT3=
EXTT4=
EXTT5=
EXTT6=
EXTT7=
EXTT8=
EXTT9=
EXTT10=
EXTT11=
EXTT12=
EXTT13=
EXTT14=
EXTT15=
PLAYORDER=
